<svg id="Capa_1" enable-background="new 0 0 512.016 512.016" viewBox="0 0 512.016 512.016" xmlns="http://www.w3.org/2000/svg"><g><g><g><g><path d="m485.844 138.225c-17.693-26.605-12.508-62.274-7.687-81.59 1.871-7.497-3.08-14.982-10.712-16.192l-2.707-.429c-5.854-.928-11.604 2.164-14.05 7.563-9.471 20.903-36.522 74.071-85.796 122.989-5.755 5.714-10.681 11.502-14.824 17.309-13.534 18.967-33.29 32.591-55.658 39.119-9.144 2.669-18.688 6.77-28.531 12.453-9.642 5.567-17.827 11.644-24.627 18.079-17.024 16.11-38.796 26.344-62.157 28.247-11.408.93-23.768 3.935-36.924 9.329-12.762 5.233-23.408 11.543-32.047 18.622-38.863 25.069-65.395 50.662-95.51 60.195-5.834 1.847-8.72 8.401-6.213 13.983 3.764 8.383 11.181 14.476 20.059 16.848 28.91 7.723 45.471 38.775 120.774 38.775.508 0 .999-.033 1.477-.088 14.432.622 30.677-2.306 48.364-9.559 14.174-5.812 25.743-12.95 34.844-20.998 17.196-15.207 38.41-25.327 61.245-27.669 14.128-1.449 29.513-6.519 45.71-15.87 14.719-8.498 26.041-18.183 34.229-28.519 13.253-16.731 31.305-29.019 51.62-35.567 14.598-4.706 29.612-14.014 44.229-28.632 21.118-21.117 31.157-43.062 32.242-63.388l.1.031c-.001.004 8.03-36.728-17.45-75.041z" fill="#79a72d"/><ellipse cx="134.212" cy="336.664" fill="#e2f4c6" rx="65.136" ry="43.548" transform="matrix(.919 -.395 .395 .919 -122.163 80.485)"/><path d="m151.424 376.669c-33.04 14.22-65.62 12.28-77.04-14.25-.95-2.2-1.67-4.4-2.19-6.57 13.75 2.1 30.24-.97 46.85-8.12 30.3-13.04 50.47-35.14 44.8-59.19 13.61 2.06 24.52 9.17 30.2 22.37 11.42 26.54-9.57 51.53-42.62 65.76z" fill="#bcea73"/><ellipse cx="278.142" cy="270.602" fill="#e2f4c6" rx="65.136" ry="43.548" transform="matrix(.866 -.5 .5 .866 -98.037 175.325)"/><path d="m299.914 308.319c-31.15 17.98-63.74 19.87-78.18-5.15-2.72-4.71-4.29-9.48-4.84-14.27 15.09 2.28 33.39-2.74 51.21-13.03 25.29-14.61 41.86-35.34 39.47-56.01 11.29 1.69 20.8 7.47 26.98 18.18 14.44 25.01-3.48 52.29-34.64 70.28z" fill="#bcea73"/><g><ellipse cx="406.947" cy="177.931" fill="#e2f4c6" rx="65.136" ry="43.548" transform="matrix(.665 -.747 .747 .665 3.527 363.719)"/><path d="m439.484 206.879c-23.91 26.87-54.25 38.92-75.83 19.72-2.45-2.18-4.52-4.52-6.22-7 15.8-1.79 32.6-12.61 47.05-28.86 21.19-23.82 30.23-51.31 16.98-70.61 10.34-1.16 20.24 1.55 28.78 9.14 21.58 19.19 13.15 50.73-10.76 77.61z" fill="#bcea73"/></g><g><path d="m426.722 305.258c14.598-4.706 29.612-14.014 44.229-28.632 21.118-21.117 31.157-43.062 32.242-63.388l.1.031s8.031-36.731-17.449-75.044c-9.485-14.262-12.391-31.127-12.307-46.683-5.795 59.312-30.437 139.01-113.631 160.684-91.505 23.839-89.912 74.077-155.739 80.91-65.827 6.832-97.372 56.292-140.687 51.273-43.309-5.019-11.766-29.687-11.756-29.695-12.519 8.404-24.501 15.216-37.109 19.207-5.834 1.847-8.72 8.401-6.213 13.983 3.764 8.383 11.18 14.476 20.059 16.848 28.91 7.723 45.471 38.775 120.774 38.775.508 0 .999-.033 1.477-.087 14.432.622 30.677-2.307 48.364-9.559 14.174-5.812 25.743-12.95 34.844-20.998 17.196-15.207 38.41-25.327 61.245-27.669 14.128-1.449 29.513-6.519 45.71-15.87 14.719-8.498 26.041-18.184 34.228-28.52 13.252-16.73 31.304-29.017 51.619-35.566z" fill="#99d53b"/><path d="m503.294 213.269-.1-.03c-1.09 20.33-11.13 42.27-32.24 63.39-14.62 14.61-29.63 23.92-44.23 28.63-20.32 6.55-38.37 18.84-51.62 35.57-8.19 10.33-19.51 20.02-34.23 28.52-16.2 9.35-31.58 14.42-45.71 15.87-22.83 2.34-44.05 12.46-61.24 27.66-9.11 8.05-20.67 15.19-34.85 21-17.69 7.25-33.93 10.18-48.36 9.56-.48.06-.97.09-1.48.09-54.55 0-78.27-16.3-98.2-28.21 14.29 3.74 31.7 6.18 53.74 6.18.56 0 1.09-.04 1.61-.1 15.7.68 33.37-2.51 52.6-10.39 15.42-6.32 28-14.09 37.9-22.84 18.7-16.54 41.78-27.55 66.61-30.09 15.37-1.58 32.1-7.09 49.72-17.27 16.01-9.24 28.32-19.77 37.23-31.01 14.41-18.2 34.04-31.56 56.14-38.69 15.88-5.12 32.21-15.24 48.1-31.14 22.97-22.97 33.89-46.83 35.07-68.94l.11.03s2.13-9.75.95-24.64c19.399 35.19 12.48 66.85 12.48 66.85z" fill="#82b732"/></g></g><g><g><ellipse cx="200.704" cy="423.43" fill="#fcca9f" rx="43.548" ry="58.793" transform="matrix(.476 -.879 .879 .476 -267.212 398.332)"/><path d="m252.404 451.419c13.75-25.397-2.411-50.828-30.965-66.287-4.652-2.519-9.349-4.618-14.012-6.256 20.129 15.435 29.575 36.719 18.068 57.974-11.512 21.264-34.493 24.981-58.422 16.563 3.92 3.009 8.246 5.795 12.898 8.313 28.553 15.459 58.678 15.099 72.433-10.307z" fill="#fca863"/></g><g><path d="m288.254 454.795c-25.05-3.99-43.49-18.21-43.49-42.38 0-24.18 18.44-38.39 43.49-42.38 0 0 45.25-.99 48.94 41.55s-48.94 43.21-48.94 43.21z" fill="#ffe7d7"/><path d="m362.346 412.412c0-28.88-26.32-43.55-58.79-43.55-5.29 0-10.42.39-15.3 1.17 25.05 3.99 43.49 18.21 43.49 42.38 0 24.18-18.44 38.39-43.49 42.38 4.88.78 10.01 1.17 15.3 1.17 32.469 0 58.79-14.66 58.79-43.55z" fill="#fcca9f"/></g></g></g></g><g><path d="m492.089 134.077c-8.499-12.784-11.125-28.117-11.061-42.374.003-.132.003-.262-.001-.392.101-12.692 2.318-24.502 4.404-32.858 1.398-5.612.371-11.597-2.82-16.418-3.188-4.817-8.288-8.099-13.992-9.003l-2.72-.432c-9.154-1.435-18.219 3.447-22.048 11.885-2.141 4.726-5.741 12.312-10.734 21.61-1.96 3.648-.59 8.195 3.06 10.155 3.651 1.961 8.196.59 10.155-3.06 4.168-7.761 7.931-15.337 11.182-22.513 1.05-2.314 3.539-3.653 6.046-3.262l2.71.43c1.586.252 2.947 1.128 3.833 2.467.89 1.344 1.165 2.946.775 4.51-2.285 9.151-4.67 22.005-4.81 36.028-1.28 13.085-3.364 25.661-6.193 37.558-1.41-1.657-2.956-3.243-4.648-4.749-9.371-8.335-20.534-12.093-32.745-11.156 2.48-3.659 4.926-7.345 7.295-11.069 2.224-3.495 1.192-8.13-2.303-10.354-3.494-2.224-8.13-1.193-10.354 2.303-5.701 8.963-11.771 17.757-18.042 26.19-10.404 5.391-20.694 13.661-30.271 24.427-10.461 11.76-17.679 23.727-21.608 35.196-1.162 1.48-2.233 2.909-3.241 4.326-8.658 12.134-20.335 22.17-33.872 29.153-2.611-.461-5.319-.754-8.14-.837-15.009-.445-32.071 4.591-49.329 14.555-20.919 12.077-34.763 27.017-40.484 42.47-10.675 5.313-21.98 8.488-33.641 9.44-5.174.416-10.517 1.257-15.899 2.463-14.056-1.594-30.683 1.312-48.562 9.007-26.482 11.397-43.452 28.018-48.62 46.115-20.291 14.716-36.229 25.556-53.065 30.882-4.799 1.522-8.734 5.037-10.795 9.643-2.071 4.629-2.067 9.938.01 14.565 2.304 5.136 5.817 9.759 10.148 13.358 4.278 3.569 9.405 6.219 14.817 7.657 8.115 2.17 15.492 6.627 24.034 11.787 20.094 12.14 45.101 27.247 98.673 27.247.58 0 1.156-.025 1.72-.074.703.025 1.411.04 2.121.05 6.248 6.469 14.099 12.321 23.326 17.316 13.805 7.474 27.535 11.343 40.093 11.343 2.04 0 4.048-.103 6.021-.308 16.149-1.68 28.767-10.104 36.487-24.363.402-.743.766-1.494 1.128-2.246 11.447 7.016 26.385 10.713 43.426 10.713 18.248 0 34.088-4.236 45.807-12.251 13.402-9.166 20.486-22.581 20.486-38.797 0-16.538-7.524-30.124-20.971-39.12 13.104-8.114 23.894-17.449 32.107-27.808 12.236-15.459 28.849-26.899 48.042-33.087 13.486-4.351 26.718-12.121 39.326-23.094 3.124-2.719 3.453-7.456.733-10.581-2.719-3.125-7.455-3.453-10.581-.733-11.07 9.634-22.537 16.408-34.082 20.132-22.027 7.101-41.115 20.259-55.196 38.049-7.904 9.97-18.705 18.948-32.102 26.684-1.6.924-3.209 1.799-4.813 2.646-3.183-1.004-6.537-1.842-10.066-2.493-4.076-.751-7.984 1.943-8.735 6.017-.75 4.074 1.943 7.984 6.017 8.735 30.733 5.662 35.322 24.143 35.322 34.654 0 17.427-13.475 36.048-51.293 36.048s-51.292-18.621-51.292-36.048c0-26.404 26.292-33.3 37.595-35.038 4.094-.63 6.902-4.459 6.272-8.554-.63-4.094-4.463-6.901-8.554-6.272-21.778 3.35-37.484 13.295-45.11 27.827-5.098-4.338-10.932-8.303-17.459-11.838-16.047-8.688-31.993-12.507-46.115-11.034-16.149 1.68-28.767 10.104-36.487 24.364s-7.877 29.43-.456 43.871c.031.06.066.119.097.179-44.477-1.28-66.155-14.356-83.731-24.975-9.125-5.512-17.743-10.719-27.926-13.441-3.324-.884-6.46-2.503-9.083-4.69-2.629-2.186-4.668-4.868-6.062-7.975-.449-1-.195-1.868-.003-2.297.185-.414.645-1.156 1.633-1.47 5.605-1.773 11.098-4.09 16.5-6.776.088.487.192.976.33 1.467 3.718 13.18 22.679 15.377 28.91 16.099 2.368.274 4.7.404 7.003.404 20.958 0 39.426-10.802 58.864-22.172 21.003-12.286 44.808-26.21 76.458-29.495 34.455-3.576 52.193-18.682 70.974-34.674 19.085-16.252 40.716-34.672 85.882-46.438 39.284-10.234 69.716-33.7 90.45-69.746 9.585-16.664 16.954-35.688 22.043-56.85 1.517 3.244 3.266 6.423 5.308 9.495 21.073 31.685 17.458 62.539 16.537 68.321-.244.679-.391 1.397-.431 2.135-.766 14.267-6.333 28.653-16.549 42.759-2.43 3.355-1.68 8.044 1.675 10.474 1.33.963 2.868 1.427 4.394 1.427 2.322 0 4.613-1.076 6.08-3.102 11.633-16.062 18.121-32.689 19.298-49.442.006-.027.013-.055.019-.083.356-1.626 8.4-40.302-18.531-80.794zm-336.492 264.932c8.297-15.323 29.013-25.284 62.269-7.279 7.763 4.203 14.534 9.243 19.752 14.654-.227 1.963-.355 3.97-.355 6.03 0 11.73 3.726 21.985 10.851 30.236-.615 1.743-1.373 3.484-2.303 5.202-5.331 9.845-13.69 15.425-24.848 16.585-10.949 1.138-24.235-2.168-37.421-9.307-33.257-18.005-36.241-40.796-27.945-56.121zm-91.255-22.05c-12.624-1.463-15.989-4.529-16.199-5.27-.552-1.943 3.929-7.597 7.95-10.86 2.786-1.872 5.553-3.789 8.302-5.734.606 3.43 1.626 6.866 3.098 10.285 1.875 4.356 4.264 8.225 7.14 11.598-3.397.364-6.819.383-10.291-.019zm56.568-19.816c-10.177 5.953-19.655 11.494-28.978 15.247-4.694-3.063-8.277-7.403-10.661-12.94-10.519-24.44 14.268-45.387 38.689-55.898 24.423-10.511 56.674-14.112 67.192 10.326 1.989 4.622 2.787 9.278 2.42 13.892-27.931 5.558-49.408 18.111-68.662 29.373zm83.769-31.615c-.005-5.896-1.251-11.78-3.748-17.58-2.763-6.419-6.645-11.744-11.451-15.958 6.713-1.181 13.296-3 19.708-5.459.273 6.941 2.249 13.809 6.049 20.39 3.12 5.405 7.114 9.921 11.826 13.457-6.499 2.403-13.806 4.167-22.384 5.15zm61.51-31.025c-7.846 6.681-14.993 12.761-22.914 17.783-6.409-2.346-11.466-6.66-15.048-12.865-13.304-23.042 8.865-46.743 31.891-60.037 14.634-8.449 29.352-12.909 41.388-12.552 12.096.356 21.028 5.387 26.551 14.952 2.146 3.717 3.442 7.565 3.886 11.479-31.455 12.048-49.481 27.382-65.754 41.24zm91.826-49.535c-4.067 1.06-7.939 2.172-11.661 3.324-.93-4.807-2.702-9.494-5.308-14.009-3.504-6.069-7.994-10.953-13.341-14.605 5.963-3.971 11.513-8.493 16.563-13.493 1.553 9.931 6.321 18.827 14.401 26.015 4.122 3.667 8.587 6.445 13.33 8.334-4.514 1.697-9.172 3.181-13.984 4.434zm81.23-62.709c-10.703 18.606-24.267 33.475-40.538 44.51-11.654 3.535-21.772 1.603-30.067-5.775-19.88-17.685-6.297-47.157 11.375-67.022 11.231-12.626 23.78-21.482 35.334-24.939 11.593-3.469 21.656-1.505 29.907 5.836 4.413 3.925 7.363 8.586 8.821 13.86-4.092 12.209-9.049 23.475-14.832 33.53z"/><path d="m204.278 416.829c5.926 3.208 11.911 5.577 17.789 7.04.608.152 1.218.225 1.818.225 3.363 0 6.422-2.279 7.272-5.689 1.001-4.02-1.446-8.09-5.466-9.09-4.653-1.159-9.455-3.069-14.271-5.677-4.819-2.608-9.042-5.585-12.553-8.847-3.035-2.819-7.781-2.644-10.6.391s-2.644 7.78.391 10.6c4.435 4.12 9.691 7.837 15.62 11.047z"/><path d="m279.168 393.495c-1.033 4.011 1.38 8.101 5.392 9.134 5.863 1.511 12.255 2.277 18.995 2.277s13.132-.767 18.995-2.277c4.012-1.033 6.425-5.123 5.392-9.134s-5.125-6.425-9.134-5.392c-4.643 1.196-9.774 1.803-15.253 1.803s-10.61-.606-15.253-1.803c-4.008-1.034-8.099 1.381-9.134 5.392z"/></g></g><g/><g/><g/><g/><g/><g/><g/><g/><g/><g/><g/><g/><g/><g/><g/></svg>