<svg id="Capa_1" enable-background="new 0 0 512 512" viewBox="0 0 512 512" xmlns="http://www.w3.org/2000/svg"><g><g><g><path d="m338.484 352.595h-315.434v-272.85c0-12.146 9.847-21.993 21.993-21.993h271.448c12.146 0 21.993 9.847 21.993 21.993z" fill="#f2fbff"/></g><g><path d="m415.19 119.752h-76.706v232.842h152.593v-167.76c0-4.849-2.175-9.442-5.926-12.514l-59.71-48.906c-2.893-2.368-6.514-3.662-10.251-3.662z" fill="#8379c1"/></g><g><path d="m485.15 172.32-59.71-48.906c-2.891-2.368-6.513-3.662-10.25-3.662h-30c3.737 0 7.359 1.294 10.25 3.662l59.71 48.906c3.751 3.072 5.926 7.666 5.926 12.515v106.959c0 17.041-13.815 30.856-30.856 30.856h-91.737v29.945h152.593v-29.945-137.815c0-4.849-2.175-9.443-5.926-12.515z" fill="#6e61b6"/></g><g><path d="m485.15 172.32-59.71-48.906c-2.891-2.368-6.513-3.662-10.25-3.662h-32.856v103.403c0 7.996 6.482 14.478 14.478 14.478h94.265v-52.799c-.001-4.848-2.176-9.442-5.927-12.514z" fill="#c4e2ff"/></g><g><path d="m485.15 172.32-59.71-48.906c-2.891-2.368-6.513-3.662-10.25-3.662h-30c3.737 0 7.359 1.294 10.25 3.662l59.71 48.906c3.751 3.073 5.927 7.666 5.927 12.515v52.799h30v-52.799c-.001-4.85-2.176-9.442-5.927-12.515z" fill="#b3dafe"/></g><g><path d="m23.05 215.869h315.434v136.726h-315.434z" fill="#fe99a0"/></g><g><path d="m23.05 322.805h315.434v29.79h-315.434z" fill="#fd8087"/></g><g><path d="m492.897 394.676h-473.794c-6.408 0-11.603-5.195-11.603-11.603v-18.875c0-6.408 5.195-11.603 11.603-11.603h473.794c6.408 0 11.603 5.195 11.603 11.603v18.875c0 6.408-5.195 11.603-11.603 11.603z" fill="#505d5d"/></g><g><circle cx="125.853" cy="397.026" fill="#9db4c3" r="58.221"/></g><g><circle cx="125.853" cy="397.026" fill="#ddebee" r="19.066"/></g><g><circle cx="400.96" cy="397.026" fill="#9db4c3" r="58.221"/></g><g><circle cx="400.96" cy="397.026" fill="#ddebee" r="19.066"/></g><g><circle cx="180.767" cy="195.745" fill="#fd4755" r="88.993"/></g><g><circle cx="180.767" cy="195.745" fill="#f2fbff" r="48.372"/></g></g><g><path d="m498.576 345.957v-161.122c0-7.126-3.161-13.802-8.674-18.316l-59.71-48.906c-4.22-3.457-9.548-5.36-15.003-5.36h-69.206v-32.508c0-16.262-13.23-29.492-29.492-29.492h-183.712c-4.143 0-7.5 3.357-7.5 7.5s3.357 7.5 7.5 7.5h183.712c7.991 0 14.492 6.501 14.492 14.492v128.624h-54.504c1.417-10.803.987-21.885-1.365-32.854-5.403-25.201-20.298-46.79-41.938-60.789-21.641-13.998-47.441-18.731-72.64-13.328-25.201 5.403-46.79 20.298-60.789 41.938-12.593 19.468-17.683 42.298-14.646 65.033h-54.551v-128.624c0-7.991 6.502-14.492 14.493-14.492h51.736c4.143 0 7.5-3.357 7.5-7.5s-3.357-7.5-7.5-7.5h-51.736c-16.263 0-29.493 13.23-29.493 29.492v265.694c-8.84 1.671-15.55 9.44-15.55 18.758v18.876c0 10.533 8.569 19.103 19.104 19.103h41.325c3.112 33.364 31.26 59.571 65.425 59.571s62.312-26.207 65.425-59.571h112.205c4.143 0 7.5-3.357 7.5-7.5s-3.357-7.5-7.5-7.5h-112.522c-1.338-9.891-4.879-19.087-10.121-27.081h165.13c-6.776 10.335-10.733 22.677-10.733 35.932 0 36.238 29.482 65.721 65.722 65.721 34.164 0 62.312-26.207 65.424-59.571h26.514c10.533 0 19.103-8.569 19.103-19.103v-18.876c-.001-8.557-5.656-15.818-13.425-18.241zm-77.888-216.741 59.711 48.906c2.02 1.654 3.178 4.102 3.178 6.713v45.299h-86.765c-3.848 0-6.978-3.131-6.978-6.979v-95.903h25.355c1.999 0 3.952.697 5.499 1.964zm-45.854-1.964v95.903c0 12.119 9.859 21.979 21.978 21.979h86.765v99.961h-41.137c-11.321-9.238-25.762-14.79-41.48-14.79s-30.159 5.552-41.48 14.79h-13.496v-217.843zm-262.492 24.231c11.823-18.277 30.056-30.855 51.339-35.42 5.74-1.23 11.514-1.839 17.249-1.839 15.528 0 30.751 4.462 44.099 13.096 18.277 11.823 30.855 30.056 35.42 51.339 4.563 21.284.565 43.071-11.257 61.348s-30.055 30.855-51.339 35.42c-21.281 4.563-43.069.566-61.348-11.257-18.277-11.823-30.855-30.056-35.42-51.339-4.564-21.284-.565-43.07 11.257-61.348zm-24.007 71.886c6.541 22.014 20.533 40.788 40.022 53.396 15.806 10.224 33.828 15.506 52.216 15.506 6.789 0 13.629-.721 20.424-2.178 25.202-5.403 46.79-20.298 60.789-41.938 5.043-7.796 8.876-16.133 11.474-24.785h57.724v121.726h-163.65c-11.321-9.238-25.763-14.79-41.48-14.79-15.718 0-30.159 5.552-41.481 14.79h-53.823v-121.727zm-73.335 159.704v-18.876c0-2.262 1.841-4.103 4.104-4.103h51.762c-5.241 7.994-8.783 17.19-10.121 27.081h-41.641c-2.263.001-4.104-1.84-4.104-4.102zm110.854 63.674c-27.968 0-50.722-22.753-50.722-50.721s22.754-50.722 50.722-50.722 50.722 22.754 50.722 50.722-22.755 50.721-50.722 50.721zm275.106 0c-27.968 0-50.722-22.753-50.722-50.721s22.754-50.722 50.722-50.722 50.721 22.754 50.721 50.722-22.753 50.721-50.721 50.721zm96.04-63.674c0 2.262-1.841 4.103-4.103 4.103h-26.83c-1.338-9.891-4.879-19.087-10.121-27.081h36.95c2.262 0 4.103 1.841 4.103 4.103v18.875z"/><path d="m125.854 369.46c-14.648 0-26.566 11.918-26.566 26.566s11.918 26.565 26.566 26.565 26.565-11.917 26.565-26.565-11.917-26.566-26.565-26.566zm0 38.132c-6.378 0-11.566-5.188-11.566-11.565 0-6.378 5.188-11.566 11.566-11.566 6.377 0 11.565 5.188 11.565 11.566 0 6.376-5.189 11.565-11.565 11.565z"/><path d="m400.96 369.46c-14.648 0-26.566 11.918-26.566 26.566s11.918 26.565 26.566 26.565 26.565-11.917 26.565-26.565-11.917-26.566-26.565-26.566zm0 38.132c-6.378 0-11.566-5.188-11.566-11.565 0-6.378 5.188-11.566 11.566-11.566 6.377 0 11.565 5.188 11.565 11.566 0 6.376-5.188 11.565-11.565 11.565z"/><path d="m382.334 281.966h23.764c4.143 0 7.5-3.357 7.5-7.5s-3.357-7.5-7.5-7.5h-23.764c-4.143 0-7.5 3.357-7.5 7.5s3.357 7.5 7.5 7.5z"/><path d="m150.421 242.657c9.151 5.921 19.586 8.979 30.233 8.979 3.931 0 7.892-.417 11.826-1.261 14.593-3.129 27.094-11.753 35.199-24.284 8.105-12.53 10.847-27.468 7.717-42.06-3.128-14.593-11.753-27.093-24.283-35.199-12.532-8.105-27.47-10.848-42.061-7.717-14.592 3.128-27.093 11.753-35.198 24.283-8.105 12.531-10.847 27.469-7.718 42.061 3.13 14.593 11.754 27.093 24.285 35.198zm2.479-17.014 20.432-18.964v29.277c-5.193-.96-10.198-2.938-14.765-5.893-2.037-1.318-3.925-2.803-5.667-4.42zm36.436 10.066c-.334.072-.669.126-1.004.19v-28.977l20.248 18.792c-5.336 4.97-11.93 8.427-19.244 9.995zm31.394-48.533c1.935 9.023.79 18.223-3.188 26.392l-29.21-27.111v-30.874c5.144.969 10.106 2.916 14.634 5.844 9.167 5.929 15.475 15.074 17.764 25.749zm-74.281-13.63c5.93-9.167 15.073-15.476 25.748-17.765.378-.081.756-.142 1.135-.212v30.644l-29.393 27.281c-1.387-2.892-2.447-5.964-3.137-9.179-2.287-10.675-.282-21.602 5.647-30.769z"/></g></g><g/><g/><g/><g/><g/><g/><g/><g/><g/><g/><g/><g/><g/><g/><g/></svg>