<svg id="Capa_1" enable-background="new 0 0 512 512" height="512" viewBox="0 0 512 512" width="512" xmlns="http://www.w3.org/2000/svg"><g><g><path d="m434.619 135.48c-9.065-1.787-17.864 4.249-20.068 13.223l-14.933 60.802c-.555 2.26-3.728 2.36-4.433.138l-17.581-55.729c-2.517-7.993-9.029-14.095-17.174-16.096l-20.1-4.937c-3.275-.804-4.119-5.005-1.453-7.094 9.464-7.423 16.27-18.405 18.13-31.585 3.272-23.126-10.796-45.6-33.005-52.838-27.195-8.855-55.679 7.337-62.377 34.61-2.625 10.689-1.487 21.422 2.563 30.81 1.192 2.735-1.624 5.481-4.302 4.176l-54.982-26.562c-2.38-1.151-2.954-4.279-1.141-6.196l39.595-41.872c6.6-6.98 6.145-18.043-1.018-24.468-2.162-1.943-4.684-3.223-7.315-3.869-5.83-1.432-12.231.261-16.602 4.953l-58.114 61.275c-8.5 8.968-6.81 23.437 3.531 30.214l64.222 42.032c2.454 1.606 3.628 4.586 2.928 7.434l-30.243 123.141c-1.481 6.032-1.559 12.324-.226 18.39l20.476 93.192c.714 3.25.229 6.648-1.365 9.569l-39.481 72.334c-4.694 8.599-1.266 19.377 7.533 23.685l4.159 2.036c8.29 4.059 18.304.85 22.689-7.272 13.047-24.169 38.507-71.333 46.005-85.222 1.383-2.562 1.917-5.492 1.531-8.378l-10.354-77.3c-1.086-8.107 4.711-15.218 12.89-15.226 5.799-.006 10.739 3.685 12.509 8.943l23.523 69.913c.835 2.48.946 5.147.322 7.689l-22.76 92.671c-2.265 9.223 3.375 18.537 12.599 20.802l4.604 1.131c9.223 2.265 18.537-3.375 20.802-12.599l25.012-101.842c.526-2.141.531-4.376.015-6.519l-20.772-86.247c-.47-1.952-.466-3.989.013-5.939l19.009-77.399c1.051-4.28 6.947-4.766 8.682-.704l19.272 45.142c5.118 11.989 17.387 19.308 30.368 18.117 12.757-1.171 23.368-10.305 26.424-22.746l23.784-96.84c2.327-9.477-3.703-19.05-13.391-20.943z" fill="#eaf6ff"/><g fill="#c4e2ff"><path d="m434.619 135.48c-2.659-.524-5.29-.359-7.744.34 2.665 3.892 3.739 8.848 2.525 13.79l-23.784 96.84c-3.056 12.441-13.666 21.575-26.424 22.746-1.076.099-2.144.118-3.206.102 5.97 4.905 13.754 7.451 21.816 6.712 12.757-1.17 23.368-10.305 26.424-22.746l23.784-96.84c2.327-9.478-3.703-19.051-13.391-20.944z"/><path d="m339.48 213.454c.873-3.555 5.082-4.481 7.479-2.37l-1.706-3.964c-5.168-12.005-22.652-10.484-25.669 2.233l-17.722 74.687c-.479 1.95-.484 3.986-.013 5.938l20.772 86.247c.516 2.143.511 4.379-.015 6.519l-25.012 101.842c-1.828 7.443-8.247 12.547-15.504 13.052 2.231 2.496 5.21 4.371 8.707 5.23l4.604 1.131c9.223 2.266 18.537-3.376 20.802-12.599l25.012-101.842c.526-2.141.531-4.376.015-6.519l-20.772-86.247c-.47-1.952-.466-3.989.013-5.939z"/><path d="m262.068 395.376-10.354-77.3c-.776-5.797 1.976-11.069 6.592-13.614-1.913-4.979-6.706-8.431-12.311-8.425-8.18.008-13.976 7.118-12.89 15.226l10.354 77.3c.387 2.886-.148 5.816-1.531 8.378-7.498 13.889-32.958 61.053-46.005 85.222-2.693 4.988-7.511 8.112-12.746 8.849 1.287 1.268 2.792 2.36 4.508 3.201l4.159 2.036c8.29 4.059 18.304.85 22.689-7.272 13.047-24.169 38.507-71.333 46.005-85.222 1.382-2.563 1.917-5.493 1.53-8.379z"/></g><path d="m119.142 204.737h-98.272c-5.164 0-9.351-4.186-9.351-9.351v-98.272c0-5.164 4.186-9.351 9.351-9.351h98.272c5.164 0 9.351 4.186 9.351 9.351v98.272c0 5.165-4.187 9.351-9.351 9.351z" fill="#5f99d7"/><path d="m491.13 424.538h-98.272c-5.164 0-9.351-4.186-9.351-9.351v-98.272c0-5.164 4.186-9.351 9.351-9.351h98.272c5.164 0 9.351 4.186 9.351 9.351v98.272c0 5.164-4.187 9.351-9.351 9.351z" fill="#5f99d7"/></g><g><path d="m398.488 283.478c15.935-1.463 29.205-12.886 33.022-28.426l23.784-96.84c3.297-13.426-5.135-27.337-19.224-30.091-12.936-2.555-25.588 5.706-28.802 18.792l-10.509 42.789-12.001-38.041c-3.283-10.424-11.919-18.519-22.539-21.126l-13.633-3.349c8.564-8.57 14.121-19.691 15.848-31.933 1.829-12.927-1.018-26.21-8.014-37.403-6.99-11.183-17.677-19.57-30.095-23.617-8.708-2.834-17.646-3.527-26.57-2.06-4.087.672-6.855 4.531-6.183 8.618.672 4.088 4.538 6.858 8.618 6.183 6.53-1.074 13.089-.562 19.489 1.521 18.649 6.077 30.644 25.275 27.902 44.659-1.504 10.662-6.95 20.156-15.329 26.73-3.528 2.764-5.137 7.191-4.199 11.554.93 4.325 4.182 7.669 8.488 8.727l20.101 4.937c5.565 1.367 10.089 5.606 11.81 11.069l17.585 55.738c1.344 4.239 5.223 6.996 9.675 6.841 4.439-.146 8.132-3.144 9.191-7.456l14.933-60.803c1.277-5.199 6.363-8.624 11.346-7.651 5.506 1.077 8.849 6.489 7.545 11.794l-23.784 96.84c-2.292 9.33-10.259 16.189-19.826 17.066-9.774.898-18.931-4.566-22.785-13.593l-19.272-45.144c-2.047-4.793-6.912-7.708-12.105-7.305-5.192.424-9.515 4.107-10.758 9.166l-19.009 77.4c-.761 3.101-.769 6.38-.021 9.483l20.773 86.247c.234.974.232 2.003-.007 2.975l-9.477 38.585c-.988 4.022 1.472 8.085 5.495 9.072.601.148 1.203.219 1.795.219 3.373 0 6.438-2.292 7.278-5.713l9.477-38.586c.808-3.291.815-6.771.022-10.064l-20.773-86.247c-.189-.784-.187-1.611.005-2.394l16.93-68.936 15.851 37.13c6.42 15.038 21.667 24.129 37.952 22.643z"/><path d="m325.131 455.053c-4.021-.993-8.085 1.473-9.073 5.494l-7.139 29.065c-1.275 5.193-6.535 8.379-11.73 7.105l-4.604-1.131c-5.193-1.275-8.38-6.538-7.105-11.73l22.76-92.672c.965-3.93.792-8.033-.498-11.868l-23.523-69.913c-2.829-8.407-10.705-14.052-19.603-14.052h-.021c-5.929.006-11.534 2.53-15.377 6.927-3.962 4.532-5.762 10.653-4.939 16.795l10.354 77.3c.178 1.325-.063 2.647-.697 3.82l-46.005 85.222c-2.481 4.595-8.101 6.394-12.79 4.1l-4.16-2.038c-4.948-2.422-6.907-8.482-4.248-13.355l39.481-72.333c2.461-4.508 3.21-9.753 2.107-14.772l-20.476-93.192c-1.081-4.919-1.017-10.103.184-14.992l30.243-123.141c1.457-5.929-.997-12.158-6.104-15.499l-64.218-42.029c-3.067-2.011-5.069-5.25-5.493-8.888-.423-3.633.777-7.239 3.293-9.893l58.16-61.324c2.371-2.546 5.943-3.609 9.324-2.782 1.537.378 2.914 1.106 4.097 2.169 4.028 3.612 4.278 9.817.577 13.731l-39.595 41.871c-2.488 2.631-3.584 6.327-2.931 9.889.653 3.564 2.991 6.635 6.258 8.215l54.958 26.55c4.064 1.981 8.797 1.244 12.06-1.881 3.278-3.141 4.222-7.863 2.416-12.007-3.57-8.275-4.319-17.283-2.165-26.05 1.486-6.051 4.228-11.536 8.15-16.304 2.631-3.198 2.172-7.925-1.027-10.557-3.199-2.631-7.925-2.172-10.557 1.027-5.361 6.517-9.107 14.005-11.134 22.255-2.096 8.533-2.177 17.234-.28 25.631l-41.471-20.034 36.218-38.299c9.509-10.057 8.851-25.956-1.456-35.201-2.992-2.687-6.635-4.613-10.539-5.572-8.653-2.125-17.804.604-23.832 7.075l-58.115 61.277c-5.583 5.89-8.246 13.89-7.307 21.948.939 8.064 5.376 15.244 12.174 19.7l63.875 41.805-30.145 122.739c-1.745 7.106-1.837 14.642-.267 21.789l20.476 93.192c.326 1.483.105 3.033-.623 4.365l-39.482 72.335c-6.735 12.339-1.855 27.809 10.817 34.013l4.16 2.038c11.951 5.85 26.266 1.263 32.586-10.446l46.005-85.222c2.148-3.979 2.965-8.452 2.365-12.938l-10.354-77.3c-.249-1.856.249-3.653 1.366-4.931.716-.819 2.012-1.797 4.102-1.799 2.45 0 4.618 1.541 5.39 3.835l23.523 69.913c.381 1.134.432 2.347.147 3.508l-22.76 92.671c-3.248 13.225 4.869 26.627 18.094 29.875l4.605 1.131c1.971.484 3.944.716 5.888.716 11.105 0 21.222-7.556 23.986-18.81l7.139-29.066c.987-4.021-1.473-8.083-5.495-9.07z"/><path d="m119.142 80.264h-98.272c-9.292 0-16.851 7.56-16.851 16.851v98.273c0 9.291 7.56 16.851 16.851 16.851h98.272c9.292 0 16.851-7.56 16.851-16.851v-98.274c-.001-9.291-7.56-16.85-16.851-16.85zm1.85 115.123c0 1.021-.83 1.851-1.851 1.851h-98.271c-1.021 0-1.851-.83-1.851-1.851v-98.273c0-1.021.831-1.851 1.851-1.851h98.272c1.021 0 1.851.83 1.851 1.851v98.273z"/><path d="m491.13 300.065h-98.272c-9.292 0-16.851 7.56-16.851 16.851v98.272c0 9.292 7.559 16.852 16.851 16.852h98.272c9.292 0 16.851-7.56 16.851-16.852v-98.272c.001-9.291-7.559-16.851-16.851-16.851zm1.852 115.122c0 1.021-.831 1.852-1.851 1.852h-98.272c-1.021 0-1.851-.831-1.851-1.852v-98.272c0-1.021.83-1.851 1.851-1.851h98.272c1.021 0 1.851.83 1.851 1.851z"/><path d="m76.132 110.084h-12.254c-4.142 0-7.5 3.357-7.5 7.5s3.358 7.5 7.5 7.5h4.754v49.832c0 4.143 3.358 7.5 7.5 7.5s7.5-3.357 7.5-7.5v-57.332c0-4.143-3.357-7.5-7.5-7.5z"/><path d="m457.744 387.646c-.032 0-.064 0-.096.001-5.042.062-10.364.107-15.014.124 3.076-4.143 7.151-9.75 12.444-17.312 3.738-5.341 6.18-10.405 7.257-15.053 2.873-12.374-7.201-26.082-21.693-26.082-10.57 0-19.719 7.52-21.754 17.881-.798 4.064 1.849 8.006 5.914 8.805 4.063.795 8.006-1.85 8.805-5.914.657-3.344 3.616-5.771 7.036-5.771 3.821 0 6.954 3.005 7.159 6.776-.074.211.229 3.268-5.013 10.757-9.07 12.96-14.481 20.045-17.388 23.852-3.574 4.679-5.543 7.257-4.283 11.353.747 2.429 2.583 4.291 5.037 5.109 2.855.953 21.456.603 31.682.474 4.142-.052 7.457-3.451 7.405-7.594-.052-4.11-3.399-7.406-7.498-7.406z"/></g></g></svg>