<svg id="Capa_1" enable-background="new 0 0 512 512" viewBox="0 0 512 512" xmlns="http://www.w3.org/2000/svg"><g><g><g><path d="m222.112 382.1c0-66.941 54.46-121.401 121.401-121.401 11.694 0 23.005 1.667 33.713 4.767v-247.49c0-5.785-4.69-10.476-10.476-10.476h-313.579c-5.786 0-10.476 4.69-10.476 10.476v452.006c0 5.785 4.69 10.476 10.476 10.476h219.267c-30.467-22.079-50.326-57.94-50.326-98.358z" fill="#eaf6ff"/><circle cx="343.513" cy="382.099" fill="#05e39c" r="122.401"/><path d="m104.958 476.422-58.717-58.717-3.546-2.132v54.408c0 5.785 4.69 10.476 10.476 10.476h54.408z" fill="#60b7ff"/><g><path d="m377.226 264.403v-246.427c0-5.785-4.69-10.476-10.476-10.476h-19.22v252.271c10.268.331 20.218 1.922 29.696 4.632z" fill="#d8ecfe"/><g><path d="m107.579 480.457h163.074c-11.324-8.402-21.144-18.713-28.989-30.457h-134.085z" fill="#d8ecfe"/><path d="m77.122 450h-34.426v19.981c0 5.785 4.69 10.476 10.476 10.476h54.408z" fill="#e2e2e2"/></g></g><g><path d="m107.579 450h-64.883v19.981c0 5.785 4.69 10.475 10.474 10.476h54.409z" fill="#26a6fe"/></g><g><circle cx="343.513" cy="382.099" fill="#05e39c" r="122.401"/><path d="m374.663 263.704c28.231 22.422 46.337 57.042 46.337 95.895 0 67.6-54.801 122.401-122.401 122.401-10.765 0-21.204-1.395-31.151-4.005 20.888 16.591 47.317 26.505 76.064 26.505 67.6 0 122.401-54.801 122.401-122.401 0-56.834-38.738-104.616-91.25-118.395z" fill="#0ed290"/></g><g><path d="m438.87 7.5h-25.217c-2.401 0-4.348 1.947-4.348 4.348v201.231c0 3.052.559 6.078 1.649 8.928l12.506 32.707c.983 2.572 4.621 2.572 5.604 0l12.506-32.707c1.09-2.851 1.649-5.877 1.649-8.928v-201.231c-.002-2.401-1.948-4.348-4.349-4.348z" fill="#ffe177"/><path d="m438.87 7.5h-12.007v198.079c0 3.052-.559 6.078-1.649 8.928l-8.564 22.398 6.809 17.809c.983 2.572 4.621 2.572 5.604 0l12.506-32.707c1.09-2.851 1.649-5.877 1.649-8.928v-201.231c-.001-2.401-1.947-4.348-4.348-4.348z" fill="#ffd15b"/></g></g><path d="m107.579 426.049v54.408l-64.883-64.883h54.408c5.785-.001 10.475 4.69 10.475 10.475z" fill="#8ac9fe"/><path d="m107.579 480.457v-30.457h-30.457z" fill="#60b7ff"/></g><g><path d="m324.669 215.239h-161.294c-4.142 0-7.5 3.357-7.5 7.5s3.358 7.5 7.5 7.5h161.295c4.142 0 7.5-3.357 7.5-7.5s-3.358-7.5-7.501-7.5z"/><path d="m108.168 241.041c2.098 0 4.1-.879 5.52-2.423l19.871-21.604c2.804-3.049 2.606-7.793-.443-10.597-3.049-2.806-7.793-2.605-10.597.442l-14.351 15.603-7.396-8.041c-2.804-3.049-7.549-3.247-10.597-.442-3.049 2.804-3.247 7.548-.443 10.597l12.916 14.042c1.42 1.544 3.422 2.423 5.52 2.423z"/><path d="m133.117 259.104c-3.049-2.806-7.794-2.607-10.598.442l-14.351 15.602-7.396-8.041c-2.804-3.049-7.549-3.248-10.597-.442-3.049 2.804-3.247 7.548-.443 10.597l12.916 14.042c1.42 1.544 3.422 2.423 5.52 2.423s4.1-.879 5.52-2.423l19.871-21.603c2.804-3.049 2.606-7.794-.442-10.597z"/><path d="m122.519 312.319-14.351 15.603-7.396-8.041c-2.804-3.049-7.549-3.248-10.597-.442-3.049 2.804-3.247 7.548-.443 10.597l12.916 14.042c1.42 1.544 3.422 2.423 5.52 2.423s4.1-.879 5.52-2.423l19.871-21.604c2.804-3.049 2.606-7.793-.443-10.597-3.049-2.806-7.793-2.606-10.597.442z"/><path d="m324.669 74.131c4.142 0 7.5-3.357 7.5-7.5s-3.358-7.5-7.5-7.5h-34.809c-4.142 0-7.5 3.357-7.5 7.5s3.358 7.5 7.5 7.5z"/><path d="m248.997 59.131h-153.745c-4.142 0-7.5 3.357-7.5 7.5s3.358 7.5 7.5 7.5h153.745c4.142 0 7.5-3.357 7.5-7.5s-3.358-7.5-7.5-7.5z"/><path d="m95.252 114.618h75.045c4.142 0 7.5-3.357 7.5-7.5s-3.358-7.5-7.5-7.5h-75.045c-4.142 0-7.5 3.357-7.5 7.5s3.358 7.5 7.5 7.5z"/><path d="m202.147 107.118c0 4.143 3.358 7.5 7.5 7.5h115.022c4.142 0 7.5-3.357 7.5-7.5s-3.358-7.5-7.5-7.5h-115.022c-4.142 0-7.5 3.358-7.5 7.5z"/><path d="m95.252 155.106h229.417c4.142 0 7.5-3.357 7.5-7.5s-3.358-7.5-7.5-7.5h-229.417c-4.142 0-7.5 3.357-7.5 7.5s3.358 7.5 7.5 7.5z"/><path d="m343.513 389.6h33.174c4.142 0 7.5-3.357 7.5-7.5s-3.358-7.5-7.5-7.5h-25.674v-33.077c0-4.143-3.358-7.5-7.5-7.5s-7.5 3.357-7.5 7.5v40.577c0 4.142 3.358 7.5 7.5 7.5z"/><path d="m343.513 455.872c-4.142 0-7.5 3.357-7.5 7.5v7.099c0 4.143 3.358 7.5 7.5 7.5s7.5-3.357 7.5-7.5v-7.099c0-4.143-3.358-7.5-7.5-7.5z"/><path d="m306.626 445.989c-3.587-2.07-8.174-.843-10.245 2.745l-3.549 6.147c-2.071 3.587-.842 8.174 2.745 10.245 1.181.682 2.471 1.006 3.743 1.006 2.592 0 5.113-1.345 6.502-3.751l3.549-6.147c2.071-3.587.842-8.173-2.745-10.245z"/><path d="m269.378 416.241-6.147 3.55c-3.587 2.071-4.816 6.658-2.745 10.245 1.39 2.406 3.91 3.751 6.502 3.751 1.272 0 2.562-.324 3.744-1.006l6.147-3.55c3.587-2.071 4.816-6.658 2.745-10.245-2.073-3.588-6.66-4.815-10.246-2.745z"/><path d="m269.74 382.099c0-4.143-3.358-7.5-7.5-7.5h-7.099c-4.142 0-7.5 3.357-7.5 7.5s3.358 7.5 7.5 7.5h7.099c4.142 0 7.5-3.358 7.5-7.5z"/><path d="m263.231 344.409 6.147 3.549c1.181.683 2.47 1.006 3.743 1.006 2.592 0 5.113-1.346 6.502-3.751 2.071-3.588.841-8.175-2.746-10.245l-6.147-3.549c-3.588-2.074-8.174-.842-10.245 2.745-2.071 3.588-.841 8.175 2.746 10.245z"/><path d="m305.822 301.817c-2.071-3.587-6.659-4.815-10.245-2.745-3.587 2.071-4.816 6.658-2.745 10.245l3.549 6.147c1.389 2.406 3.91 3.751 6.502 3.751 1.272 0 2.562-.324 3.743-1.006 3.587-2.071 4.816-6.658 2.745-10.245z"/><path d="m343.513 308.326c4.142 0 7.5-3.357 7.5-7.5v-7.099c0-4.143-3.358-7.5-7.5-7.5s-7.5 3.357-7.5 7.5v7.099c0 4.143 3.358 7.5 7.5 7.5z"/><path d="m391.448 299.072c-3.588-2.071-8.174-.843-10.245 2.745l-3.549 6.147c-2.071 3.587-.842 8.174 2.745 10.245 1.181.682 2.471 1.006 3.743 1.006 2.592 0 5.113-1.345 6.502-3.751l3.549-6.147c2.071-3.587.842-8.173-2.745-10.245z"/><path d="m416.294 331.418-6.147 3.55c-3.587 2.071-4.816 6.658-2.745 10.245 1.39 2.406 3.91 3.751 6.502 3.751 1.272 0 2.562-.324 3.744-1.006l6.147-3.55c3.587-2.071 4.816-6.658 2.745-10.245-2.072-3.588-6.658-4.814-10.246-2.745z"/><path d="m417.285 382.1c0 4.143 3.358 7.5 7.5 7.5h7.099c4.142 0 7.5-3.357 7.5-7.5s-3.358-7.5-7.5-7.5h-7.099c-4.142 0-7.5 3.357-7.5 7.5z"/><path d="m423.794 419.79-6.147-3.55c-3.587-2.069-8.174-.843-10.246 2.745-2.071 3.587-.842 8.174 2.745 10.245l6.147 3.55c1.182.682 2.471 1.006 3.744 1.006 2.591 0 5.113-1.345 6.502-3.751 2.071-3.587.842-8.174-2.745-10.245z"/><path d="m390.644 448.733c-2.071-3.587-6.658-4.815-10.245-2.745-3.587 2.071-4.816 6.658-2.745 10.245l3.549 6.147c1.389 2.406 3.91 3.751 6.502 3.751 1.272 0 2.562-.324 3.743-1.006 3.587-2.071 4.816-6.658 2.745-10.245z"/><path d="m459.305 31.305h-8.587v-19.457c-.001-6.534-5.316-11.848-11.848-11.848h-25.217c-6.533 0-11.848 5.314-11.848 11.848v55.152c0 4.143 3.358 7.5 7.5 7.5s7.5-3.357 7.5-7.5v-20.695h18.913v166.774c0 2.145-.388 4.248-1.154 6.25l-8.303 21.714-8.302-21.714c-.766-2.002-1.154-4.105-1.154-6.25v-111.079c0-4.143-3.358-7.5-7.5-7.5s-7.5 3.357-7.5 7.5v111.079c0 3.982.721 7.888 2.143 11.607l12.506 32.706c1.567 4.101 5.417 6.751 9.808 6.751 4.39 0 8.24-2.65 9.807-6.75l12.506-32.707c1.422-3.72 2.143-7.625 2.143-11.607v-166.774h8.587c1.378 0 2.5 1.121 2.5 2.5v49.13c0 4.143 3.358 7.5 7.5 7.5s7.5-3.357 7.5-7.5v-49.13c0-9.65-7.851-17.5-17.5-17.5zm-42.5 0v-16.305h18.913v16.305z"/><path d="m161 472.957h-45.921v-46.908c0-9.912-8.064-17.976-17.976-17.976h-46.908v-206.073c0-4.143-3.358-7.5-7.5-7.5s-7.5 3.357-7.5 7.5v267.981c0 9.912 8.064 17.976 17.976 17.976h107.829c4.142 0 7.5-3.357 7.5-7.5s-3.358-7.5-7.5-7.5zm-63.896-49.884c1.641 0 2.976 1.335 2.976 2.976v36.302l-39.277-39.277h36.301zm-46.909 46.908v-36.301l39.277 39.277h-36.301c-1.641 0-2.976-1.335-2.976-2.976z"/><path d="m384.726 258.903v-240.927c0-9.913-8.064-17.976-17.976-17.976h-313.579c-9.912 0-17.976 8.063-17.976 17.976v149.024c0 4.143 3.358 7.5 7.5 7.5s7.5-3.357 7.5-7.5v-149.024c0-1.641 1.335-2.976 2.976-2.976h313.579c1.641 0 2.976 1.335 2.976 2.976v236.881c-8.469-1.742-17.236-2.658-26.213-2.658-22.401 0-43.496 5.7-61.911 15.726h-118.227c-4.142 0-7.5 3.357-7.5 7.5s3.358 7.5 7.5 7.5h96.345c-12.433 10.521-22.871 23.33-30.652 37.774h-65.692c-4.142 0-7.5 3.357-7.5 7.5s3.358 7.5 7.5 7.5h58.812c-5.533 14.418-8.574 30.06-8.574 46.401 0 35.335 14.189 67.415 37.16 90.857h-54.774c-4.142 0-7.5 3.357-7.5 7.5s3.358 7.5 7.5 7.5h72.303c21.238 15.133 47.203 24.043 75.21 24.043 71.627 0 129.901-58.273 129.901-129.9 0-57.228-37.201-105.928-88.688-123.197zm-41.213 238.097c-63.356 0-114.901-51.544-114.901-114.9s51.544-114.901 114.901-114.901 114.901 51.544 114.901 114.901-51.545 114.9-114.901 114.9z"/></g></g><g/><g/><g/><g/><g/><g/><g/><g/><g/><g/><g/><g/><g/><g/><g/></svg>