<svg id="Capa_1" enable-background="new 0 0 512 512" height="512" viewBox="0 0 512 512" width="512" xmlns="http://www.w3.org/2000/svg"><path d="m62.049 52.957v353.557l193.951 97.986 193.951-97.986v-353.557z" fill="#00915d"/><path d="m317.106 234.274 132.845-75.872v151.743z" fill="#433f43"/><path d="m194.894 234.274-132.845-75.872v151.743z" fill="#433f43"/><path d="m449.951 88.604-193.951 110.771-193.951-110.771v69.798l132.845 75.872-132.845 75.871v69.799l193.951-110.771 193.951 110.771v-69.799l-132.845-75.871 132.845-75.872z" fill="#ffea00"/><path d="m62.049 52.957h387.902v17.173h-387.902z" fill="#008d1c"/><path d="m240.848-156.146h30.305v387.902h-30.305z" fill="#d9e7ec" transform="matrix(0 1 -1 0 293.805 -218.195)"/><path d="m62.049 40.835h387.902v12.122h-387.902z" fill="#c5d3dd"/><path d="m449.951 7.5h30.305v60.61h-30.305z" fill="#d9e7ec" transform="matrix(-1 0 0 -1 930.207 75.61)"/><path d="m468.134 7.5h12.122v60.61h-12.122z" fill="#c5d3dd"/><path d="m31.744 7.5h30.305v60.61h-30.305z" fill="#d9e7ec" transform="matrix(-1 0 0 -1 93.793 75.61)"/><path d="m49.927 7.5h12.122v60.61h-12.122z" fill="#c5d3dd"/><path d="m480.256 0h-30.305c-4.143 0-7.5 3.357-7.5 7.5v7.652h-372.902v-7.652c0-4.143-3.357-7.5-7.5-7.5h-30.305c-4.143 0-7.5 3.357-7.5 7.5v60.609c0 4.143 3.357 7.5 7.5 7.5h22.805v330.905c0 2.829 1.593 5.418 4.118 6.694l193.951 97.985c1.063.537 2.223.806 3.382.806s2.318-.269 3.382-.806l193.951-97.985c2.525-1.276 4.118-3.865 4.118-6.694v-330.905h22.805c4.143 0 7.5-3.357 7.5-7.5v-60.609c0-4.143-3.358-7.5-7.5-7.5zm-410.707 171.323 110.223 62.951-110.223 62.951zm0 143.176 129.065-73.713c2.338-1.335 3.78-3.82 3.78-6.513s-1.442-5.178-3.78-6.513l-129.065-73.711v-52.523l182.731 104.362c1.152.658 2.437.987 3.72.987s2.567-.329 3.72-.987l182.731-104.363v52.523l-129.064 73.712c-2.338 1.335-3.78 3.82-3.78 6.513s1.442 5.178 3.78 6.513l129.064 73.713v52.524l-182.731-104.363c-2.305-1.316-5.135-1.316-7.439 0l-182.732 104.363zm372.902-17.274-110.222-62.951 110.222-62.95zm0-212.974-186.451 106.487-186.451-106.487v-23.794h372.902zm0-54.099v15.305h-372.902v-15.305zm-403.207 30.457v-45.609h15.305v45.609zm216.756 435.489-186.451-94.197v-17.604l186.451-106.487 186.451 106.488v17.604zm216.756-435.489h-15.305v-45.609h15.305z"/></svg>