<svg id="Capa_1" enable-background="new 0 0 512 512" height="512" viewBox="0 0 512 512" width="512" xmlns="http://www.w3.org/2000/svg"><g><g><path d="m385.301 116.589 32.325 197.991-161.626 64.651-161.626-64.651 32.325-197.991z" fill="#734a9b"/></g><g><path d="m369.621 180.789 23.447 143.614 24.557-9.823-32.325-197.992h-258.601l-4.948 30.305h207.991c19.804 0 36.689 14.352 39.879 33.896z" fill="#5e3881"/></g><g><path d="m256 336.804-155.124-62.05-6.502 39.826 161.626 64.651 161.626-64.651-6.502-39.826z" fill="#d8e2f1"/></g><g><path d="m411.124 274.754-24.558 9.823 6.503 39.826 24.557-9.823z" fill="#b9cbea"/></g><g><path d="m7.5 82.261h497v34.346h-497z" fill="#734a9b"/></g><g><path d="m477.244 82.261h27.256v34.346h-27.256z" fill="#5e3881"/></g><g><path d="m488.337 429.739h-54.548l10.101-101.016h34.346z" fill="#ffe07d"/></g><g><path d="m478.236 328.723h-16.163l10.102 101.016h16.162z" fill="#ffd064"/></g><g><path d="m406.848 202.016c-.668-4.089-4.536-6.855-8.61-6.194-4.089.668-6.861 4.522-6.194 8.611l10.709 65.592-146.753 58.701-146.752-58.701 10.709-65.592c.667-4.089-2.105-7.943-6.194-8.611-4.091-.66-7.943 2.105-8.61 6.194l-18.181 111.355c-.566 3.47 1.354 6.867 4.617 8.173l161.626 64.65c.894.357 1.84.536 2.785.536s1.892-.179 2.785-.536l161.626-64.65c3.264-1.306 5.184-4.703 4.617-8.173zm-150.848 169.136-153.255-61.302 4.026-24.66 146.443 58.577c.894.357 1.84.536 2.785.536s1.892-.179 2.785-.536l146.443-58.577 4.026 24.66z"/><path d="m504.5 74.761h-81.839c-4.143 0-7.5 3.357-7.5 7.5s3.357 7.5 7.5 7.5h74.339v19.346h-482v-19.346h372.571c4.143 0 7.5-3.357 7.5-7.5s-3.357-7.5-7.5-7.5h-380.071c-4.143 0-7.5 3.357-7.5 7.5v34.346c0 4.143 3.357 7.5 7.5 7.5h110.372l-7.072 43.316c-.667 4.089 2.105 7.943 6.193 8.611.41.066.816.099 1.218.099 3.61 0 6.793-2.614 7.394-6.292l7.467-45.734h245.857l7.467 45.734c.601 3.679 3.783 6.292 7.394 6.292.401 0 .809-.032 1.218-.099 4.088-.668 6.86-4.522 6.193-8.611l-7.072-43.316h59.436v197.116h-9.673c-3.854 0-7.079 2.92-7.463 6.754l-10.102 101.017c-.211 2.108.48 4.208 1.902 5.778 1.422 1.571 3.441 2.468 5.561 2.468h54.549c2.119 0 4.139-.896 5.561-2.468s2.113-3.67 1.902-5.778l-10.103-101.017c-.384-3.834-3.609-6.754-7.463-6.754h-9.672v-197.117h35.936c4.143 0 7.5-3.357 7.5-7.5v-34.345c0-4.143-3.357-7.5-7.5-7.5zm-24.449 347.478h-37.975l8.602-86.017h20.771z"/></g></g></svg>