<svg id="Capa_1" enable-background="new 0 0 512 512" height="512" viewBox="0 0 512 512" width="512" xmlns="http://www.w3.org/2000/svg"><g><path d="m238 85.962h36v183.443h-36z" fill="#5c91ab"/><path d="m282.154 299.404h-52.308c-3.229 0-5.846-2.617-5.846-5.846v-18.308c0-3.229 2.617-5.846 5.846-5.846h52.308c3.229 0 5.846 2.617 5.846 5.846v18.308c0 3.229-2.617 5.846-5.846 5.846z" fill="#ffd740"/><path d="m282.154 269.404h-30c3.229 0 5.846 2.618 5.846 5.846v18.308c0 3.229-2.617 5.846-5.846 5.846h30c3.229 0 5.846-2.617 5.846-5.846v-18.308c0-3.228-2.617-5.846-5.846-5.846z" fill="#ffc400"/><path d="m290.165 504.5h-68.33c9.02-97.872 10.18-205.096 10.18-205.096h47.97s1.15 107.224 10.18 205.096z" fill="#fff7e6"/><path d="m279.985 299.404h-30s1.15 107.224 10.18 205.096h30c-9.03-97.872-10.18-205.096-10.18-205.096z" fill="#ebe3d4"/><circle cx="256" cy="174.808" fill="#80d8ff" r="63"/><path d="m256 111.808c-5.171 0-10.191.637-15 1.812 27.549 6.731 48 31.565 48 61.188s-20.451 54.458-48 61.188c4.809 1.175 9.829 1.812 15 1.812 34.794 0 63-28.206 63-63s-28.206-63-63-63z" fill="#40c4ff"/><g><path d="m296.038 485.456c-.337-4.128-3.956-7.2-8.087-6.862-4.128.338-7.201 3.958-6.863 8.087.284 3.468.576 6.917.874 10.319h-51.922c3.185-36.425 5.687-77.738 7.443-122.957.161-4.139-3.064-7.625-7.203-7.785-4.137-.184-7.625 3.063-7.785 7.203-1.88 48.377-4.614 92.233-8.127 130.351-.194 2.101.506 4.185 1.927 5.742 1.421 1.559 3.433 2.446 5.542 2.446h68.33c2.109 0 4.121-.888 5.542-2.446 1.421-1.559 2.121-3.643 1.927-5.743-.551-5.943-1.088-12.118-1.598-18.355z"/><path d="m281.5 109.1v-15.638h5.679c4.142 0 7.5-3.357 7.5-7.5s-3.358-7.5-7.5-7.5c-2.449 0 8.45.001-23.679-.002v-70.96c0-4.143-3.358-7.5-7.5-7.5s-7.5 3.357-7.5 7.5v70.96c-2.424 0 8.775-.001-23.679.002-4.142 0-7.5 3.357-7.5 7.5s3.358 7.5 7.5 7.5h5.679v15.609c-2.725 1.055-5.385 2.279-7.958 3.668-3.645 1.968-5.003 6.518-3.035 10.163 1.969 3.643 6.517 5.004 10.163 3.034.493-.266 1.001-.5 1.502-.751-2.108 4.556-3.882 9.648-5.298 15.092-6.484 1.565-12.389 3.628-17.555 6.121.251-.42.502-.841.765-1.256 2.217-3.499 1.178-8.133-2.32-10.35-3.498-2.216-8.132-1.177-10.35 2.32-7.14 11.267-10.914 24.301-10.914 37.694 0 29.883 18.697 55.464 45 65.708v21.389h-.654c-7.359 0-13.346 5.987-13.346 13.347v18.308c0 5.426 3.261 10.098 7.921 12.182-.118 7.082-.366 19.652-.841 35.844-.122 4.141 3.136 7.595 7.277 7.717 4.167.124 7.595-3.137 7.716-7.277.457-15.578.705-27.841.83-35.119h33.194c.36 20.788 1.733 82.358 6.131 147.986.266 3.962 3.562 6.999 7.476 6.998.168 0 .338-.006.509-.017 4.133-.277 7.259-3.853 6.982-7.985-4.445-66.321-5.785-128.475-6.116-148.146 4.66-2.084 7.92-6.756 7.92-12.182v-18.308c0-7.359-5.987-13.347-13.346-13.347h-.653v-21.389c26.303-10.243 45-35.825 45-65.708s-18.697-55.464-45-65.707zm-50 182.804v-15h49v15zm57.736-99.124c1.478-11.963 1.479-23.971 0-35.944 13.706 4.524 22.264 11.478 22.264 17.972s-8.558 13.447-22.264 17.972zm-33.236 37.528c-4.361 0-9.81-6.618-13.813-18.251 9.11.899 18.501.9 27.627 0-4.004 11.633-9.453 18.251-13.814 18.251zm-17.654-33.881c-2.257-13.751-2.261-29.46 0-43.238 11.494-1.738 23.807-1.739 35.308 0 2.257 13.751 2.261 29.46 0 43.238-11.494 1.738-23.807 1.739-35.308 0zm65.298-50.046c-5.156-2.485-11.048-4.543-17.517-6.104-1.416-5.44-3.188-10.529-5.294-15.082 9.465 4.758 17.391 12.136 22.811 21.186zm-58.144-52.919h21v11.631c-6.846-1.027-13.848-1.07-21 .006zm10.5 25.846c4.361 0 9.81 6.618 13.813 18.251-9.11-.899-18.501-.9-27.627 0 4.004-11.634 9.453-18.251 13.814-18.251zm-33.236 37.527c-1.478 11.963-1.479 23.971 0 35.944-13.706-4.524-22.264-11.478-22.264-17.972s8.558-13.447 22.264-17.972zm-14.408 46.399c5.156 2.485 11.048 4.543 17.517 6.104 1.416 5.44 3.188 10.529 5.294 15.082-9.465-4.757-17.391-12.135-22.811-21.186zm58.144 58.666h-21v-17.378c6.975 1.047 14.011 1.049 21 0zm14.333-37.48c2.106-4.553 3.878-9.642 5.294-15.082 6.469-1.561 12.361-3.619 17.517-6.104-5.42 9.051-13.346 16.429-22.811 21.186z"/></g></g></svg>