<?xml version="1.0" encoding="iso-8859-1"?>
<!-- Generator: Adobe Illustrator 19.0.0, SVG Export Plug-In . SVG Version: 6.00 Build 0)  -->
<svg xmlns="http://www.w3.org/2000/svg" xmlns:xlink="http://www.w3.org/1999/xlink" version="1.1" id="Layer_1" x="0px" y="0px" viewBox="0 0 512.001 512.001" style="enable-background:new 0 0 512.001 512.001;" xml:space="preserve">
<path style="fill:#B0E046;" d="M130.988,334.534c-1.608,0-3.16,0.234-4.645,0.632c-1.085-16.036-14.427-28.706-30.736-28.706  c-8.423,0-16.052,3.38-21.615,8.856c-3.244-17.975-18.955-31.615-37.863-31.615c-11.062,0-21.029,4.672-28.046,12.146v70.668  c13.707-0.867,27.679-1.316,41.864-1.316c28.33,0,55.805,1.794,82.003,5.145c9.451-0.504,16.964-8.303,16.964-17.879  C148.916,342.562,140.89,334.534,130.988,334.534z"/>
<path style="fill:#2DA555;" d="M154.52,373.658c-32.819-5.481-67.986-8.46-104.571-8.46c-14.185,0-28.158,0.449-41.864,1.316  v100.021C31.354,427.212,84.455,394.145,154.52,373.658z"/>
<path style="fill:#36CC6B;" d="M460.128,366.799v9.861H174.116v-8.29C94.393,388.162,33.478,423.623,8.085,466.534v37.381h495.832  V379.208C490.057,374.537,475.418,370.386,460.128,366.799z"/>
<rect x="174.113" y="351.297" style="fill:#C17A49;" width="286.009" height="25.361"/>
<g style="opacity:0.1;">
	<rect x="174.113" y="351.297" style="fill:#231F20;" width="25.475" height="25.361"/>
</g>
<polygon style="fill:#C17A49;" points="242.932,293.533 217.063,293.533 189.614,293.533 189.614,318.894 444.63,318.894   444.63,293.533 "/>
<g style="opacity:0.1;">
	<polygon style="fill:#231F20;" points="194.911,293.533 192.34,293.533 189.614,293.533 189.614,318.894 214.951,318.894    214.951,293.533  "/>
</g>
<path style="fill:#36CC6B;" d="M197.503,124.027c0-24.663-14.209-46-34.882-56.303c0.793-3.486,1.223-7.108,1.223-10.834  c0-26.954-21.849-48.806-48.806-48.806c-26.953,0-48.803,21.852-48.803,48.806c0,3.087,0.3,6.105,0.846,9.033  c-18.372,1.595-32.793,16.994-32.793,35.78c0,12.612,6.515,23.693,16.35,30.106c-1.392,4.96-2.148,10.186-2.148,15.594  c0,31.854,25.822,57.678,57.676,57.678c17.462,0,33.095-7.773,43.672-20.035C177.213,178.24,197.503,153.507,197.503,124.027z"/>
<g style="opacity:0.1;">
	<path style="fill:#231F20;" d="M111.013,194.565c-22.352-8.439-37.372-30.135-37.372-53.99c0-4.097,0.44-8.206,1.31-12.216   c0.433-2.007-0.309-4.087-1.919-5.364c-8.638-6.851-13.592-17.101-13.592-28.12c0-6.787,1.962-13.434,5.672-19.221   c1.234-1.925,1.119-4.42-0.289-6.224c-1.409-1.803-3.801-2.522-5.968-1.791c-14.694,4.949-24.565,18.637-24.565,34.064   c0,12.175,6.113,23.429,16.35,30.106c-1.426,5.081-2.148,10.327-2.148,15.594c0,31.804,25.874,57.678,57.676,57.678   c1.066,0,2.158-0.03,3.244-0.092c2.543-0.142,4.64-2.046,5.027-4.562C114.823,197.909,113.396,195.464,111.013,194.565z"/>
	<path style="fill:#231F20;" d="M69.57,65.911c0.72,0.331,1.489,0.494,2.255,0.494c1.09,0,2.173-0.331,3.095-0.977   c3.804-2.669,8.003-4.542,12.478-5.571c2.616-0.601,4.391-3.034,4.164-5.709c-0.115-1.368-0.175-2.742-0.175-4.085   c0-10.503,3.525-20.956,9.924-29.435c1.487-1.97,1.447-4.7-0.101-6.624c-1.547-1.923-4.202-2.552-6.446-1.522   c-17.33,7.944-28.529,25.376-28.529,44.407c0,1.528,0.075,3.089,0.225,4.642C66.645,63.441,67.829,65.108,69.57,65.911z"/>
</g>
<g>
	<path style="fill:#85C8EB;" d="M362.761,190.415h10.633c9.979,0,18.061-8.086,18.061-18.061c0-3.352-0.926-6.476-2.516-9.165   h37.629c9.977,0,18.061-8.087,18.061-18.062c0-9.977-8.084-18.063-18.061-18.063h-84.725c-9.977,0-18.063,8.086-18.063,18.063   c0,3.349,0.926,6.475,2.516,9.164h-37.625c-9.979,0-18.065,8.086-18.065,18.063c0,9.975,8.086,18.061,18.065,18.061h51.196"/>
	<path style="fill:#85C8EB;" d="M318.067,59.791h-26.644h-23.811h-26.644c-9.91,0-17.945,8.032-17.945,17.945   c0,9.911,8.035,17.944,17.945,17.944h26.644h23.811h26.644c9.911,0,17.947-8.032,17.947-17.944   C336.014,67.823,327.978,59.791,318.067,59.791z"/>
</g>
<g style="opacity:0.1;">
	<path style="fill:#231F20;" d="M460.128,366.799v9.861h25.228v-3.252C477.167,371.033,468.755,368.823,460.128,366.799z"/>
	<path style="fill:#231F20;" d="M33.313,288.548H16.067v166.233c-2.957,3.849-5.624,7.768-7.982,11.753v37.381h25.228v-3.043   v-34.338c22.64-38.259,73.534-70.585,140.803-91.176v-6.989c-59.932,14.879-109.231,38.613-140.803,67.71   C33.313,436.08,33.313,288.548,33.313,288.548z"/>
</g>
<g>
	<path style="fill:#231F20;" d="M373.394,198.5h-10.633c-4.465,0-8.084-3.618-8.084-8.084c0-4.465,3.62-8.084,8.084-8.084h10.633   c5.502,0,9.977-4.475,9.977-9.977c0-1.79-0.468-3.49-1.392-5.053c-1.477-2.499-1.5-5.598-0.063-8.119   c1.439-2.521,4.119-4.078,7.023-4.078h37.629c5.502,0,9.977-4.475,9.977-9.978c0-5.502-4.475-9.979-9.977-9.979h-84.725   c-5.502,0-9.979,4.477-9.979,9.979c0,1.789,0.469,3.489,1.392,5.052c1.477,2.499,1.5,5.598,0.063,8.119   c-1.439,2.521-4.119,4.078-7.023,4.078h-37.625c-5.503,0-9.981,4.477-9.981,9.979c0,5.502,4.478,9.977,9.981,9.977h51.196   c4.465,0,8.084,3.62,8.084,8.084c0,4.466-3.62,8.084-8.084,8.084h-51.196c-14.419,0-26.15-11.729-26.15-26.145   c0-14.418,11.731-26.148,26.15-26.148h27.048c-0.015-0.359-0.023-0.72-0.023-1.08c0-14.418,11.73-26.148,26.148-26.148h84.725   c14.417,0,26.145,11.73,26.145,26.148c0,14.417-11.729,26.146-26.145,26.146h-27.052c0.015,0.36,0.022,0.72,0.022,1.081   C399.539,186.771,387.811,198.5,373.394,198.5z"/>
	<path style="fill:#231F20;" d="M347.527,239.531h-68.01c-4.466,0-8.084-3.618-8.084-8.084c0-4.466,3.618-8.084,8.084-8.084h68.01   c4.466,0,8.084,3.618,8.084,8.084C355.611,235.911,351.992,239.531,347.527,239.531z"/>
	<path style="fill:#231F20;" d="M253.366,239.531h-11.474c-4.466,0-8.084-3.618-8.084-8.084c0-4.466,3.618-8.084,8.084-8.084h11.474   c4.466,0,8.084,3.618,8.084,8.084C261.45,235.911,257.831,239.531,253.366,239.531z"/>
	<path style="fill:#231F20;" d="M506.497,371.546c-12.176-4.104-25.029-7.831-38.285-11.112v-9.135c0-4.466-3.618-8.084-8.084-8.084   h-7.414v-24.321v-25.36v-16.236c0-4.466-3.62-8.084-8.084-8.084c-4.466,0-8.084,3.618-8.084,8.084v8.152H242.932   c-4.466,0-8.084,3.618-8.084,8.084s3.618,8.084,8.084,8.084h193.614v9.191H197.698v-9.191h19.364c4.466,0,8.084-3.618,8.084-8.084   s-3.618-8.084-8.084-8.084h-19.364v-8.152c0-4.466-3.618-8.084-8.084-8.084c-4.466,0-8.084,3.618-8.084,8.084v16.236v25.36v24.321   h-7.414c-4.466,0-8.084,3.618-8.084,8.084v10.798c-4.045,1.057-8.035,2.159-11.976,3.297c-0.153-0.025-0.307-0.05-0.46-0.074   c2.168-3.798,3.405-8.188,3.405-12.856c0-13.671-10.6-24.912-24.011-25.937c-1.727-5.993-4.863-11.38-9.008-15.802v-60.569   l25.991-11.965c4.056-1.866,5.83-6.668,3.963-10.723c-1.865-4.056-6.667-5.831-10.723-3.963l-19.232,8.853v-21.674   c11.486-3.238,21.98-9.561,30.268-18.45c30.355-8.698,51.339-36.388,51.339-68.205c0-25.054-12.898-47.76-34.039-60.604   c0.252-2.173,0.379-4.357,0.379-6.534c0-31.369-25.521-56.89-56.89-56.89C83.671,0,58.151,25.521,58.151,56.89   c0,0.816,0.018,1.634,0.055,2.454c-18.717,5.214-32.001,22.188-32.001,42.358c0,12.966,5.654,25.078,15.364,33.392   c-0.773,4.056-1.163,8.176-1.163,12.307c0,36.261,29.5,65.762,65.76,65.762c0.551,0,1.097-0.029,1.646-0.043v87.233   c-3.849-1.281-7.952-1.979-12.203-1.979c-6.095,0-11.986,1.398-17.299,4.041c-7.499-16.042-23.743-26.8-42.179-26.8   c-12.799,0-25.17,5.357-33.94,14.696c-1.408,1.499-2.191,3.478-2.191,5.534v70.668v100.021v37.381c0,4.466,3.618,8.084,8.084,8.084   h495.832c4.466,0,8.084-3.618,8.084-8.084V379.208C512.001,375.738,509.785,372.655,506.497,371.546z M106.166,196.996   c-27.345,0-49.592-22.248-49.592-49.594c0-4.527,0.622-9.039,1.848-13.409c0.955-3.401-0.41-7.028-3.367-8.956   c-7.941-5.178-12.681-13.901-12.681-23.333c0-14.309,11.161-26.488,25.408-27.727c2.272-0.197,4.356-1.346,5.737-3.163   c1.38-1.817,1.928-4.132,1.51-6.375c-0.471-2.521-0.709-5.061-0.709-7.55c0.001-22.455,18.267-40.722,40.721-40.722   c22.455,0,40.722,18.267,40.722,40.722c0,3.021-0.343,6.062-1.021,9.039c-0.829,3.637,0.939,7.366,4.276,9.031   c18.753,9.346,30.404,28.147,30.404,49.067c0,25.228-17.079,47.093-41.532,53.173c-1.622,0.403-3.078,1.299-4.17,2.565   c-5.408,6.268-12.208,10.998-19.736,13.904v-71.393c0-4.466-3.618-8.084-8.084-8.084s-8.084,3.618-8.084,8.084v28.696   l-16.73-14.206c-3.406-2.893-8.506-2.474-11.394,0.929c-2.891,3.403-2.474,8.506,0.929,11.394l27.195,23.092v24.769   C107.264,196.969,106.716,196.996,106.166,196.996z M452.044,368.575H182.2v-0.206v-8.986h269.843v7.416V368.575z M197.698,326.978   h238.847v16.236H197.698V326.978z M21.017,373.93c2.114-0.093,4.23-0.177,6.35-0.249c1.144-0.039,2.286-0.077,3.431-0.11   c2.2-0.064,4.402-0.113,6.603-0.156c1.007-0.019,2.015-0.043,3.021-0.058c3.179-0.046,6.356-0.075,9.526-0.075   c3.22,0,6.436,0.028,9.65,0.075c0.887,0.013,1.771,0.037,2.657,0.053c2.375,0.045,4.749,0.097,7.119,0.167   c0.941,0.027,1.879,0.061,2.819,0.093c2.391,0.081,4.779,0.172,7.164,0.28c0.818,0.037,1.635,0.074,2.452,0.114   c2.653,0.129,5.301,0.274,7.944,0.435c0.527,0.032,1.055,0.061,1.582,0.095c9.316,0.592,18.567,1.393,27.728,2.382   c-44.808,16.975-80.101,39.27-102.896,64.983v-67.796c0.51-0.026,1.015-0.059,1.526-0.084   C18.801,374.025,19.909,373.979,21.017,373.93z M16.169,299.262c5.527-4.842,12.509-7.477,19.962-7.477   c14.719,0,27.297,10.5,29.907,24.966c0.532,2.949,2.653,5.364,5.509,6.269c2.856,0.908,5.982,0.158,8.117-1.944   c4.281-4.212,9.944-6.533,15.944-6.533c11.909,0,21.866,9.298,22.67,21.169c0.163,2.411,1.397,4.624,3.364,6.031   c1.966,1.406,4.458,1.858,6.795,1.232c0.893-0.239,1.728-0.356,2.55-0.356c5.427,0,9.843,4.417,9.843,9.845   c0,5.01-3.767,9.179-8.687,9.753c-16.622-2.104-33.553-3.56-50.685-4.362c-0.287-0.013-0.573-0.026-0.86-0.039   c-6.413-0.292-12.855-0.493-19.319-0.6c-0.658-0.011-1.314-0.021-1.971-0.029c-3.116-0.043-6.236-0.072-9.362-0.072   c-3.226,0-6.459,0.03-9.694,0.077c-1.01,0.014-2.02,0.038-3.03,0.057c-2.265,0.043-4.528,0.095-6.791,0.16   c-1.131,0.032-2.258,0.068-3.388,0.106c-2.28,0.078-4.555,0.168-6.828,0.268c-0.983,0.043-1.966,0.082-2.947,0.129   c-0.366,0.017-0.736,0.03-1.103,0.049v-58.697H16.169z M495.832,495.832H16.169v-27c0.177-0.285,0.348-0.569,0.528-0.854   c0.341-0.538,0.692-1.075,1.044-1.61c0.462-0.7,0.929-1.398,1.413-2.093c0.232-0.335,0.471-0.669,0.708-1.004   c0.664-0.932,1.337-1.864,2.039-2.791c0.024-0.031,0.047-0.061,0.07-0.092c22.894-30.121,66.031-56.72,121.551-74.864   c0.371-0.121,0.741-0.243,1.112-0.363c1.45-0.469,2.912-0.929,4.378-1.386c0.825-0.257,1.648-0.514,2.478-0.767   c1.148-0.35,2.303-0.696,3.461-1.04c3.735-1.108,7.512-2.189,11.35-3.225c0.009,0.032,0.024,0.06,0.033,0.093   c0.106,0.378,0.235,0.746,0.392,1.099c0.024,0.053,0.051,0.103,0.074,0.155c0.166,0.352,0.351,0.694,0.565,1.018   c0.009,0.013,0.015,0.026,0.024,0.039c0.219,0.328,0.466,0.633,0.729,0.924c0.045,0.05,0.088,0.1,0.135,0.149   c0.263,0.277,0.543,0.536,0.843,0.773c0.049,0.038,0.098,0.073,0.148,0.11c0.312,0.236,0.636,0.455,0.98,0.645   c0.006,0.003,0.013,0.009,0.019,0.012c0.345,0.189,0.709,0.345,1.082,0.482c0.068,0.025,0.135,0.052,0.204,0.074   c0.365,0.123,0.742,0.221,1.127,0.292c0.071,0.013,0.143,0.022,0.215,0.032c0.406,0.063,0.818,0.106,1.242,0.106h7.414v22.208   c0,4.466,3.618,8.084,8.084,8.084c4.466,0,8.084-3.618,8.084-8.084v-22.208h238.847v22.208c0,4.466,3.618,8.084,8.084,8.084   c4.465,0,8.084-3.618,8.084-8.084v-22.208h7.414c0.275,0,0.545-0.014,0.813-0.041c0.092-0.01,0.18-0.028,0.269-0.04   c0.175-0.024,0.349-0.045,0.52-0.08c0.107-0.022,0.209-0.053,0.315-0.079c0.15-0.037,0.302-0.07,0.448-0.115   c0.11-0.033,0.215-0.075,0.322-0.113c0.138-0.049,0.276-0.095,0.41-0.15c0.109-0.045,0.213-0.098,0.32-0.149   c0.126-0.059,0.254-0.116,0.377-0.181c0.107-0.056,0.208-0.121,0.311-0.181c0.116-0.069,0.234-0.136,0.347-0.211   c0.101-0.067,0.198-0.14,0.296-0.212c0.108-0.079,0.217-0.155,0.32-0.239c0.095-0.077,0.185-0.158,0.277-0.239   c0.099-0.088,0.199-0.175,0.294-0.267c0.087-0.085,0.17-0.176,0.254-0.265c0.091-0.096,0.18-0.192,0.266-0.292   c0.08-0.094,0.154-0.191,0.23-0.288c0.081-0.105,0.162-0.209,0.237-0.317c0.071-0.101,0.136-0.205,0.203-0.309   c0.071-0.112,0.14-0.224,0.206-0.338c0.06-0.108,0.117-0.218,0.174-0.328c0.06-0.119,0.12-0.238,0.174-0.361   c0.051-0.112,0.097-0.227,0.142-0.343c0.05-0.126,0.097-0.252,0.14-0.382c0.039-0.117,0.074-0.236,0.109-0.355   c0.038-0.133,0.072-0.266,0.103-0.402c0.028-0.122,0.052-0.244,0.074-0.368c0.025-0.138,0.046-0.277,0.064-0.417   c0.016-0.125,0.029-0.25,0.039-0.376c0.005-0.068,0.017-0.134,0.02-0.203c9.485,2.427,18.731,5.089,27.632,7.955v110.774H495.832z"/>
	<path style="fill:#231F20;" d="M318.067,103.765h-77.099c-14.352,0-26.029-11.676-26.029-26.028s11.677-26.029,26.029-26.029   h77.099c14.353,0,26.031,11.677,26.031,26.029C344.098,92.089,332.42,103.765,318.067,103.765z M240.968,67.875   c-5.438,0-9.861,4.424-9.861,9.861c0,5.437,4.424,9.86,9.861,9.86h77.099c5.439,0,9.863-4.424,9.863-9.86   c0-5.438-4.425-9.861-9.863-9.861C318.067,67.875,240.968,67.875,240.968,67.875z"/>
</g>
<g>
</g>
<g>
</g>
<g>
</g>
<g>
</g>
<g>
</g>
<g>
</g>
<g>
</g>
<g>
</g>
<g>
</g>
<g>
</g>
<g>
</g>
<g>
</g>
<g>
</g>
<g>
</g>
<g>
</g>
</svg>
