<svg id="Capa_1" enable-background="new 0 0 511.221 511.221" height="512" viewBox="0 0 511.221 511.221" width="512" xmlns="http://www.w3.org/2000/svg"><g><g><path d="m423.213 503.72h-335.205c-18.424 0-33.36-14.936-33.36-33.36v-429.5c0-18.424 14.936-33.36 33.36-33.36h335.205c18.424 0 33.36 14.936 33.36 33.36v429.501c0 18.424-14.936 33.359-33.36 33.359z" fill="#baafb9"/><path d="m228.512 470.361v-429.501c0-18.424 14.936-33.36 33.36-33.36h-173.864c-18.424 0-33.36 14.936-33.36 33.36v429.501c0 18.424 14.936 33.36 33.36 33.36h173.864c-18.425-.001-33.36-14.936-33.36-33.36z" fill="#aa9ea9"/><path d="m426.573 397.32v-355.035c0-2.643-2.142-4.785-4.785-4.785h-332.355c-2.643 0-4.785 2.142-4.785 4.785v355.035c0 2.643 2.142 4.785 4.785 4.785h332.354c2.643 0 4.786-2.142 4.786-4.785z" fill="#f9f7f8"/><path d="m89.433 37.5c-2.643 0-4.785 2.143-4.785 4.785v355.035c0 2.643 2.142 4.785 4.785 4.785h139.078v-361.245c0-1.134.058-2.255.168-3.36z" fill="#efedef"/><path d="m218.418 364.287v-80.088c0-4.318 3.482-7.819 7.778-7.819h161.669c4.296 0 7.778 3.501 7.778 7.819v80.088c0 4.318-3.482 7.819-7.778 7.819h-161.669c-4.296-.001-7.778-3.501-7.778-7.819z" fill="#99e6fc"/><path d="m303.931 470.724h-97.642c-3.675 0-6.653-2.979-6.653-6.653v-22.919c0-3.675 2.979-6.653 6.653-6.653h97.642c3.675 0 6.653 2.979 6.653 6.653v22.919c.001 3.674-2.978 6.653-6.653 6.653z" fill="#c9bfc8"/><path d="m210.477 70.689h-88.293c-2.133 0-3.862 1.729-3.862 3.862v22.276c0 2.133 1.729 3.862 3.862 3.862h25.284c2.133 0 3.862 1.729 3.862 3.862v60.977c0 2.133 1.729 3.862 3.862 3.862h22.276c2.133 0 3.862-1.729 3.862-3.862v-60.977c0-2.133 1.729-3.862 3.862-3.862h25.285c2.133 0 3.862-1.729 3.862-3.862v-22.276c0-2.133-1.729-3.862-3.862-3.862z" fill="#f07281"/></g><g><path d="m423.213 0h-335.205c-22.53 0-40.86 18.329-40.86 40.859v429.501c0 22.53 18.33 40.86 40.86 40.86h335.205c22.53 0 40.86-18.33 40.86-40.86v-429.501c0-22.53-18.33-40.859-40.86-40.859zm25.86 470.36c0 14.26-11.601 25.86-25.86 25.86h-335.205c-14.259 0-25.86-11.601-25.86-25.86v-429.501c0-14.258 11.601-25.859 25.86-25.859h335.205c14.259 0 25.86 11.601 25.86 25.859z"/><path d="m421.788 30h-263.12c-4.142 0-7.5 3.357-7.5 7.5s3.358 7.5 7.5 7.5h260.405v349.605h-250.75c-4.142 0-7.5 3.357-7.5 7.5s3.358 7.5 7.5 7.5h253.465c6.774 0 12.285-5.511 12.285-12.285v-355.035c0-6.774-5.511-12.285-12.285-12.285z"/><path d="m136.36 394.605h-44.212v-349.605h34.557c4.142 0 7.5-3.357 7.5-7.5s-3.358-7.5-7.5-7.5h-37.272c-6.774 0-12.285 5.511-12.285 12.285v355.035c0 6.774 5.511 12.285 12.285 12.285h46.927c4.142 0 7.5-3.357 7.5-7.5s-3.358-7.5-7.5-7.5z"/><path d="m387.866 364.605h-18.194c-4.142 0-7.5 3.357-7.5 7.5s3.358 7.5 7.5 7.5h18.194c8.424 0 15.278-6.872 15.278-15.318v-80.089c0-8.447-6.854-15.319-15.278-15.319h-161.67c-8.424 0-15.278 6.872-15.278 15.319v80.089c0 8.446 6.854 15.318 15.278 15.318h111.513c4.142 0 7.5-3.357 7.5-7.5s-3.358-7.5-7.5-7.5h-111.513c-.134 0-.278-.122-.278-.318v-80.089c0-.197.145-.319.278-.319h161.669c.134 0 .278.122.278.319v80.089c.001.196-.143.318-.277.318z"/><path d="m303.931 426.998h-97.641c-7.804 0-14.154 6.35-14.154 14.153v22.919c0 7.804 6.35 14.153 14.154 14.153h97.642c7.804 0 14.154-6.35 14.154-14.153v-22.919c-.001-7.803-6.351-14.153-14.155-14.153zm-.846 36.226h-95.949v-21.226h95.949z"/><path d="m210.477 63.189h-88.293c-6.265 0-11.362 5.097-11.362 11.361v22.277c0 6.265 5.097 11.361 11.362 11.361h21.646v57.339c0 6.265 5.097 11.361 11.362 11.361h22.276c6.265 0 11.362-5.097 11.362-11.361v-57.339h21.647c6.265 0 11.362-5.097 11.362-11.361v-22.276c0-6.265-5.097-11.362-11.362-11.362zm-3.638 30h-21.647c-6.265 0-11.362 5.097-11.362 11.361v57.339h-15v-57.339c0-6.265-5.097-11.361-11.362-11.361h-21.646v-15h81.017z"/><path d="m250.823 91.617h144.821c4.142 0 7.5-3.357 7.5-7.5s-3.358-7.5-7.5-7.5h-144.821c-4.142 0-7.5 3.357-7.5 7.5s3.358 7.5 7.5 7.5z"/><path d="m250.823 130.069h144.821c4.142 0 7.5-3.357 7.5-7.5s-3.358-7.5-7.5-7.5h-144.821c-4.142 0-7.5 3.357-7.5 7.5s3.358 7.5 7.5 7.5z"/><path d="m215.357 161.021c0 4.143 3.358 7.5 7.5 7.5h172.787c4.142 0 7.5-3.357 7.5-7.5s-3.358-7.5-7.5-7.5h-172.787c-4.142 0-7.5 3.358-7.5 7.5z"/><path d="m395.644 191.975h-277.322c-4.142 0-7.5 3.357-7.5 7.5s3.358 7.5 7.5 7.5h277.322c4.142 0 7.5-3.357 7.5-7.5s-3.358-7.5-7.5-7.5z"/><path d="m395.644 230.427h-277.322c-4.142 0-7.5 3.357-7.5 7.5s3.358 7.5 7.5 7.5h277.322c4.142 0 7.5-3.357 7.5-7.5s-3.358-7.5-7.5-7.5z"/><path d="m184.22 268.879h-65.897c-4.142 0-7.5 3.357-7.5 7.5s3.358 7.5 7.5 7.5h65.897c4.142 0 7.5-3.357 7.5-7.5s-3.358-7.5-7.5-7.5z"/><path d="m184.22 307.332h-65.897c-4.142 0-7.5 3.357-7.5 7.5s3.358 7.5 7.5 7.5h65.897c4.142 0 7.5-3.357 7.5-7.5s-3.358-7.5-7.5-7.5z"/><path d="m184.22 345.784h-65.897c-4.142 0-7.5 3.357-7.5 7.5s3.358 7.5 7.5 7.5h65.897c4.142 0 7.5-3.357 7.5-7.5s-3.358-7.5-7.5-7.5z"/></g></g></svg>